<svg width="64" height="64" viewBox="0 0 64 64" fill="none" xmlns="http://www.w3.org/2000/svg">
<path d="M32 64C49.6731 64 64 49.6731 64 32C64 14.3269 49.6731 0 32 0C14.3269 0 0 14.3269 0 32C0 49.6731 14.3269 64 32 64Z" fill="#E84142"/>
<path d="M43.2879 32.8318C44.3966 30.9169 46.1855 30.9169 47.2942 32.8318L54.1981 44.9515C55.3068 46.8665 54.3997 48.4287 52.1824 48.4287H38.2737C36.0816 48.4287 35.1745 46.8665 36.258 44.9515L43.2879 32.8318ZM29.9336 9.49956C31.0422 7.5846 32.806 7.5846 33.9147 9.49956L35.4517 12.2712L39.08 18.646C39.9619 20.4602 39.9619 22.6019 39.08 24.4161L26.91 45.5059C25.8013 47.2192 23.9619 48.3027 21.921 48.4287H11.817C9.59972 48.4287 8.69263 46.8917 9.80129 44.9515L29.9336 9.49956Z" fill="white"/>
</svg>
