<svg width="64" height="64" viewBox="0 0 64 64" fill="none" xmlns="http://www.w3.org/2000/svg">
<g clip-path="url(#clip0_514_497)">
<path d="M63.9998 32C63.9998 49.6691 49.6718 63.9949 31.9922 63.9974C14.3255 63.9974 -0.00255903 49.6691 1.3722e-06 31.9974C-0.00511943 14.3258 14.3229 0 31.9974 0C49.6718 0 63.9998 14.3283 63.9998 32Z" fill="white"/>
<g clip-path="url(#clip1_514_497)">
<path d="M31.5083 14.1061C32.3801 13.6633 33.4443 14.6905 32.9811 15.5389C32.7121 16.2305 31.6921 16.4144 31.1711 15.8872C30.6191 15.3813 30.7991 14.3814 31.5083 14.1061ZM22.1313 15.0906C22.6609 14.8783 23.3313 15.3509 23.2773 15.9131C23.3335 16.5234 22.5673 16.9727 22.0275 16.6826C21.3123 16.4128 21.3941 15.2819 22.1313 15.0906ZM41.3365 16.6997C40.5089 16.6023 40.3779 15.3349 41.1747 15.0797C41.7927 14.7862 42.3597 15.3367 42.4501 15.9073C42.3205 16.3945 41.9017 16.8406 41.3365 16.6997ZM24.2649 18.978C25.1503 18.4325 26.4137 19.2449 26.2775 20.2466C26.2315 21.258 24.8523 21.844 24.0741 21.1602C23.3217 20.6231 23.4357 19.391 24.2649 18.978ZM37.7811 19.5568C38.1761 18.5652 39.7767 18.5352 40.2263 19.5005C40.6707 20.2516 40.1241 21.1818 39.3323 21.4372C38.2835 21.6279 37.2873 20.5236 37.7811 19.5568ZM30.3791 21.3809C30.3705 20.5286 31.1675 19.8936 31.9991 19.8355C32.5507 19.9432 33.1519 20.1721 33.3885 20.7143C33.8295 21.4621 33.4379 22.4919 32.6411 22.8351C32.2767 23.034 31.8459 22.9594 31.4491 22.9362C30.8425 22.6462 30.3317 22.0773 30.3791 21.3809ZM16.4341 22.6228C17.2429 22.1385 18.3341 23.0223 18.0279 23.8781C17.8593 24.6184 16.8377 24.9195 16.2537 24.4469C15.6303 24.0042 15.7291 22.9395 16.4341 22.6228ZM46.3791 22.6212C47.0653 22.1023 48.1977 22.6976 48.1159 23.5415C48.1619 24.311 47.1829 24.8913 46.5017 24.4951C45.7515 24.1666 45.6749 23.0424 46.3791 22.6212ZM34.3007 24.1534C35.4331 23.7571 36.7781 24.2313 37.4235 25.2147C38.2749 26.4168 37.8219 28.2476 36.5007 28.9374C35.1317 29.7532 33.1327 29.0617 32.6271 27.5726C32.0531 26.2395 32.8893 24.5712 34.3007 24.1534ZM27.6567 24.2845C28.9117 23.7075 30.6007 24.1916 31.2069 25.442C31.9203 26.6592 31.3687 28.354 30.0933 28.9824C28.8163 29.6888 27.0147 29.1532 26.3967 27.8465C25.7037 26.5828 26.3191 24.8664 27.6567 24.2845ZM21.0041 26.4998C21.0995 25.7122 21.8623 25.1997 22.6319 25.1467C23.4611 25.2441 24.1235 25.8714 24.2137 26.6888C24.1593 27.498 23.5173 28.2889 22.6369 28.284C21.6683 28.3653 20.8191 27.4267 21.0041 26.4998ZM40.6537 25.3179C41.6481 24.7542 43.0289 25.5749 42.9847 26.6876C43.0529 27.8666 41.5247 28.6974 40.5345 28.0058C39.5059 27.43 39.5861 25.8082 40.6537 25.3179ZM24.9529 29.4731C26.1159 29.1614 27.4457 29.6954 28.0161 30.7366C28.6409 31.7847 28.3855 33.2407 27.4151 34.0094C26.1705 35.1369 23.8751 34.6842 23.2127 33.1454C22.4515 31.7348 23.3761 29.8444 24.9529 29.4731ZM37.5547 29.4673C38.6853 29.1523 40.0135 29.5768 40.6213 30.58C41.4249 31.7274 41.0413 33.4388 39.8449 34.1784C38.5917 35.0373 36.6505 34.5864 35.9609 33.2434C35.1249 31.8542 35.9661 29.891 37.5547 29.4673ZM17.4727 30.7764C18.4773 30.4062 19.5909 31.486 19.1839 32.4562C18.9353 33.34 17.6565 33.6667 16.9959 33.0151C16.2229 32.4032 16.5091 31.0417 17.4727 30.7764ZM44.7027 32.1842C44.6737 31.3734 45.2827 30.6554 46.1363 30.6106C46.8243 30.7168 47.4933 31.2573 47.4389 31.9869C47.5019 32.9504 46.3099 33.6053 45.4671 33.1526C45.0721 32.957 44.8695 32.5623 44.7027 32.1842ZM12.5331 31.2523C13.1375 30.9953 13.8851 31.5055 13.7471 32.1593C13.7147 32.8995 12.5927 33.1842 12.1805 32.5657C11.8163 32.1361 12.0343 31.4738 12.5331 31.2523ZM50.6417 31.2375C51.0673 30.9423 51.7501 31.1545 51.9187 31.6388C52.2047 32.1677 51.6803 32.8923 51.0691 32.8029C50.2111 32.8791 49.9335 31.6055 50.6417 31.2375ZM28.2357 34.7909C29.8261 34.3881 31.5357 35.6798 31.5457 37.2749C31.6495 38.8867 29.9657 40.316 28.3377 39.9437C27.0793 39.7464 26.0919 38.5657 26.1327 37.3271C26.1293 36.1425 27.0471 35.0414 28.2357 34.7909ZM34.5341 34.7876C36.1483 34.3481 37.9089 35.6631 37.8833 37.2949C37.9685 38.8769 36.3373 40.2581 34.7433 39.9443C33.2433 39.7553 32.1365 38.1501 32.5553 36.7323C32.7667 35.7875 33.5771 35.0192 34.5341 34.7876ZM22.3903 35.7694C23.5073 35.5838 24.5545 36.7976 24.1015 37.8307C23.7711 38.9315 22.1263 39.2301 21.3991 38.3309C20.5461 37.4673 21.1829 35.8886 22.3903 35.7694ZM40.8613 35.8179C41.8573 35.4116 43.0799 36.2508 43.0033 37.3037C43.0433 38.4628 41.5339 39.2621 40.5599 38.5855C39.4567 37.9781 39.6575 36.1906 40.8613 35.8179ZM46.0241 40.8618C45.6341 40.1537 46.3425 39.2151 47.1497 39.3462C47.5515 39.3396 47.8325 39.648 48.0897 39.9067C48.1425 40.3263 48.2311 40.827 47.8735 41.1503C47.3879 41.749 46.2879 41.5781 46.0241 40.8618ZM16.4307 39.5434C17.1851 39.0542 18.2707 39.7838 18.1011 40.6429C18.0109 41.4026 17.0283 41.8368 16.3811 41.4057C15.6865 41.0144 15.7121 39.9001 16.4307 39.5434ZM31.3347 41.1338C32.3223 40.7093 33.5805 41.5468 33.4869 42.6063C33.5601 43.7771 32.0039 44.5879 31.0383 43.8848C29.9657 43.2811 30.1445 41.5051 31.3347 41.1338ZM24.4317 42.7023C25.2729 42.2712 26.4017 43.0158 26.3251 43.9327C26.3507 44.6857 25.5963 45.3273 24.8335 45.2161C24.2017 45.2029 23.7897 44.6512 23.5871 44.1266C23.5975 43.5548 23.8391 42.918 24.4317 42.7023ZM38.4145 42.7156C39.2795 42.1949 40.5089 42.9427 40.4271 43.9234C40.4493 44.9482 39.0599 45.6047 38.2545 44.9315C37.4747 44.4038 37.5699 43.1352 38.4145 42.7156ZM40.8461 48.5709C40.4613 48.0038 40.9143 47.3206 41.5391 47.1912C42.0415 47.2908 42.5727 47.6588 42.4671 48.226C42.3939 48.9938 41.2411 49.2293 40.8461 48.5709ZM21.5439 48.0784C21.6971 47.629 22.0683 47.1823 22.6115 47.2992C23.4033 47.3539 23.6383 48.5163 22.9453 48.8745C22.3221 49.2838 21.5991 48.7234 21.5439 48.0784ZM30.8561 48.594C31.0077 47.9292 31.8913 47.6058 32.4737 47.959C32.8585 48.1199 32.9709 48.5393 33.0697 48.8958C33.0169 49.0814 32.9697 49.2673 32.9233 49.4529C32.6849 49.7282 32.3785 50.0034 31.9817 49.9935C31.2443 50.0777 30.5791 49.2657 30.8561 48.594Z" fill="#3CC8C8"/>
</g>
</g>
<defs>
<clipPath id="clip0_514_497">
<rect width="64" height="64" fill="white"/>
</clipPath>
<clipPath id="clip1_514_497">
<rect width="40" height="36" fill="white" transform="translate(12 14)"/>
</clipPath>
</defs>
</svg>
