<svg width="64" height="64" viewBox="0 0 64 64" fill="none" xmlns="http://www.w3.org/2000/svg">
<path d="M32 64C49.6731 64 64 49.6731 64 32C64 14.3269 49.6731 0 32 0C14.3269 0 0 14.3269 0 32C0 49.6731 14.3269 64 32 64Z" fill="#2E3148"/>
<path d="M31.5 50C41.7173 50 50 41.7173 50 31.5C50 21.2827 41.7173 13 31.5 13C21.2827 13 13 21.2827 13 31.5C13 41.7173 21.2827 50 31.5 50Z" fill="#1B1E36"/>
<path d="M32 4C28.6867 4 26 16.536 26 32C26 47.464 28.6867 60 32 60C35.3133 60 38 47.464 38 32C38 16.536 35.3133 4 32 4ZM32.4143 58.4198C32.0354 58.947 31.6565 58.5515 31.6565 58.5515C30.1306 56.7072 29.3676 53.2809 29.3676 53.2809C26.6986 44.3211 27.3339 25.0834 27.3339 25.0834C28.5882 9.81076 30.8699 6.20289 31.6464 5.40191C31.7257 5.32016 31.8301 5.2702 31.9412 5.26083C32.0523 5.25146 32.1631 5.28328 32.2539 5.35068C33.3805 6.18342 34.3254 9.66604 34.3254 9.66604C37.1157 20.4707 36.8631 30.6165 36.8631 30.6165C37.1157 39.4447 35.4648 49.327 35.4648 49.327C34.1941 56.8373 32.4143 58.4198 32.4143 58.4198Z" fill="#6F7390"/>
<path d="M55.7982 18.0275C54.0767 15.0201 41.8039 18.8387 28.3779 26.5556C14.952 34.2725 5.48145 42.9668 7.20175 45.973C8.92206 48.9792 21.1961 45.1618 34.6221 37.4449C48.048 29.728 57.5186 21.0337 55.7982 18.0275ZM8.79008 45.5605C8.13097 45.4772 8.27986 44.9342 8.27986 44.9342C9.08837 42.6298 11.6613 40.2276 11.6613 40.2276C18.0533 33.3342 35.0785 24.3106 35.0785 24.3106C48.9819 17.8266 53.3004 18.1002 54.396 18.4026C54.5084 18.434 54.6061 18.5044 54.6718 18.6011C54.7375 18.6979 54.7668 18.8148 54.7547 18.9312C54.623 20.3697 52.0852 22.9641 52.0852 22.9641C44.1636 30.8908 35.2274 35.7257 35.2274 35.7257C27.6975 40.3622 18.2644 43.7937 18.2644 43.7937C11.0867 46.3863 8.79034 45.5605 8.79034 45.5605H8.79008Z" fill="#6F7390"/>
<path d="M55.7941 45.9872C57.5331 43.0059 48.0641 34.3246 34.6537 26.5967C21.2433 18.8688 8.94305 15.0263 7.20558 18.0127C5.46811 20.9991 14.9356 29.6753 28.3537 37.4032C41.7718 45.1311 54.0566 48.9739 55.7941 45.9872ZM8.3579 19.1647C8.10103 18.5593 8.64328 18.4135 8.64328 18.4135C11.044 17.9629 14.4162 18.9898 14.4162 18.9898C23.5903 21.0663 39.9491 31.2514 39.9491 31.2514C52.5442 40.0115 54.4758 43.8701 54.7653 44.9654C54.7948 45.0778 54.7833 45.1968 54.7331 45.3016C54.6828 45.4064 54.5969 45.4901 54.4905 45.5381C53.1771 46.1358 49.6595 45.2452 49.6595 45.2452C38.8178 42.3558 30.1472 37.0618 30.1472 37.0618C22.3565 32.8854 14.653 26.4591 14.653 26.4591C8.79946 21.5603 8.3597 19.1713 8.3597 19.1713L8.3579 19.1647Z" fill="#6F7390"/>
<path d="M31.5 35C33.433 35 35 33.6569 35 32C35 30.3431 33.433 29 31.5 29C29.567 29 28 30.3431 28 32C28 33.6569 29.567 35 31.5 35Z" fill="#B7B9C8"/>
<path d="M45 21C46.1046 21 47 20.1046 47 19C47 17.8954 46.1046 17 45 17C43.8954 17 43 17.8954 43 19C43 20.1046 43.8954 21 45 21Z" fill="#B7B9C8"/>
<path d="M14 28C15.1046 28 16 27.1046 16 26C16 24.8954 15.1046 24 14 24C12.8954 24 12 24.8954 12 26C12 27.1046 12.8954 28 14 28Z" fill="#B7B9C8"/>
<path d="M28 52C29.1046 52 30 51.1046 30 50C30 48.8954 29.1046 48 28 48C26.8954 48 26 48.8954 26 50C26 51.1046 26.8954 52 28 52Z" fill="#B7B9C8"/>
</svg>
