<svg width="270" height="312" viewBox="0 0 270 312" fill="none" xmlns="http://www.w3.org/2000/svg">
<path d="M197.542 19.4173L197.538 19.4147C175.674 7.21016 145.027 0.5 106.471 0.5H1H0.5V1V311V311.5H1H111.912C160.341 311.5 199.718 298.279 226.99 272.192C254.265 246.102 269.364 207.207 269.364 156C269.364 92.5884 241.665 44.653 197.542 19.4173ZM80.6036 240.959V71.0405H116.098C138.791 71.0405 157.058 78.6421 169.66 93.0721C182.27 107.511 189.26 128.849 189.26 156.419C189.26 184.618 182.165 205.742 169.457 219.812C156.755 233.875 138.383 240.959 115.679 240.959H80.6036Z" stroke="url(#paint0_linear_514_193)"/>
<path d="M197.542 19.4173L197.538 19.4147C175.674 7.21016 145.027 0.5 106.471 0.5H1H0.5V1V311V311.5H1H111.912C160.341 311.5 199.718 298.279 226.99 272.192C254.265 246.102 269.364 207.207 269.364 156C269.364 92.5884 241.665 44.653 197.542 19.4173ZM80.6036 240.959V71.0405H116.098C138.791 71.0405 157.058 78.6421 169.66 93.0721C182.27 107.511 189.26 128.849 189.26 156.419C189.26 184.618 182.165 205.742 169.457 219.812C156.755 233.875 138.383 240.959 115.679 240.959H80.6036Z" stroke="url(#paint1_linear_514_193)"/>
<defs>
<linearGradient id="paint0_linear_514_193" x1="1" y1="69.2" x2="286.443" y2="208.965" gradientUnits="userSpaceOnUse">
<stop stop-color="#15B0F3"/>
<stop offset="0.437773" stop-color="#318DE9"/>
<stop offset="1" stop-color="#4A71D5"/>
</linearGradient>
<linearGradient id="paint1_linear_514_193" x1="29.2406" y1="24.2385" x2="172.28" y2="317.545" gradientUnits="userSpaceOnUse">
<stop stop-color="#070709" stop-opacity="0.2"/>
<stop offset="1" stop-color="#070709"/>
</linearGradient>
</defs>
</svg>
