<svg width="32" height="33" viewBox="0 0 32 33" fill="none" xmlns="http://www.w3.org/2000/svg">
<path fill-rule="evenodd" clip-rule="evenodd" d="M0 16.127C0 7.2904 7.16344 0.126953 16 0.126953C24.8366 0.126953 32 7.2904 32 16.127C32 24.9635 24.8366 32.127 16 32.127C7.16344 32.127 0 24.9635 0 16.127Z" fill="#333438"/>
<path fill-rule="evenodd" clip-rule="evenodd" d="M14.1406 16.1574C14.1406 15.6382 14.5142 15.2126 14.9874 15.2126C15.4606 15.2126 15.8425 15.6382 15.8342 16.1574C15.8342 16.6766 15.4606 17.1022 14.9874 17.1022C14.5225 17.1022 14.1406 16.6766 14.1406 16.1574ZM17.1711 16.1574C17.1711 15.6382 17.5446 15.2127 18.0178 15.2127C18.4911 15.2127 18.8646 15.6382 18.8646 16.1574C18.8646 16.6766 18.4911 17.1022 18.0178 17.1022C17.5529 17.1022 17.1711 16.6766 17.1711 16.1574Z" fill="white"/>
<path fill-rule="evenodd" clip-rule="evenodd" d="M10.6597 8.12695H21.8726C22.8182 8.12695 23.588 8.88748 23.588 9.82987V24.6602L21.7889 23.0895L20.7764 22.1636L19.7054 21.1799L20.1489 22.7092H10.6597C9.71418 22.7092 8.94434 21.9487 8.94434 21.0063V9.82987C8.94434 8.88748 9.71418 8.12695 10.6597 8.12695ZM18.0906 18.2536C18.3416 18.5677 18.6428 18.9232 18.6428 18.9232C20.4921 18.8653 21.2034 17.6666 21.2034 17.6666C21.2034 15.0048 19.9984 12.8472 19.9984 12.8472C18.7935 11.9544 17.6471 11.9792 17.6471 11.9792L17.5299 12.1115C18.9525 12.5413 19.6135 13.1613 19.6135 13.1613C18.7433 12.6901 17.8897 12.4587 17.0948 12.3677C16.4923 12.3016 15.9149 12.3182 15.4045 12.3843C15.3607 12.3843 15.3232 12.3906 15.281 12.3977C15.2749 12.3987 15.2686 12.3998 15.2622 12.4008C14.9694 12.4256 14.2581 12.5331 13.3627 12.9216C13.0531 13.0621 12.869 13.1613 12.869 13.1613C12.869 13.1613 13.5636 12.5083 15.0698 12.0784L14.9861 11.9792C14.9861 11.9792 13.8397 11.9544 12.6347 12.8472C12.6347 12.8472 11.4298 15.0048 11.4298 17.6666C11.4298 17.6666 12.1327 18.8653 13.982 18.9232C13.982 18.9232 14.2916 18.5512 14.5426 18.237C13.4799 17.9229 13.0782 17.2616 13.0782 17.2616C13.0782 17.2616 13.1619 17.3194 13.3125 17.4021C13.3209 17.4104 13.3293 17.4186 13.346 17.4269C13.3586 17.4352 13.3711 17.4414 13.3837 17.4476C13.3962 17.4538 13.4088 17.46 13.4213 17.4682C13.6305 17.584 13.8397 17.6749 14.0322 17.7493C14.3753 17.8816 14.7853 18.0138 15.2622 18.1048C15.8898 18.2205 16.6262 18.2618 17.4295 18.113C17.8228 18.0469 18.2245 17.9312 18.6428 17.7576C18.9357 17.6501 19.2621 17.493 19.6051 17.2698C19.6051 17.2698 19.1868 17.9477 18.0906 18.2536Z" fill="white"/>
</svg>
