<svg width="56" height="57" viewBox="0 0 56 57" fill="none" xmlns="http://www.w3.org/2000/svg">
<rect y="0.838623" width="56" height="56" rx="12" fill="url(#paint0_linear_514_444)"/>
<path fill-rule="evenodd" clip-rule="evenodd" d="M21.333 24.1719C21.333 21.233 23.6497 18.8405 26.6733 18.2909L26.6679 18.2325L26.6663 16.8386C26.6663 16.1022 27.2633 15.5052 27.9997 15.5052C28.7361 15.5052 29.333 16.1022 29.333 16.8386V18.1719L29.3274 18.2911C32.3503 18.8412 34.6663 21.2335 34.6663 24.1719C34.6663 24.9083 34.0694 25.5052 33.333 25.5052C32.6492 25.5052 32.0857 24.9905 32.0086 24.3274L31.9997 24.1719C31.9997 22.3735 30.2455 20.8386 27.9997 20.8386C25.7539 20.8386 23.9997 22.3735 23.9997 24.1719C23.9997 25.9037 25.6263 27.3912 27.7522 27.499L27.9997 27.5052C31.6449 27.5052 34.6663 30.149 34.6663 33.5052C34.6663 36.4415 32.3537 38.8325 29.334 39.3849L29.333 40.8386C29.333 41.575 28.7361 42.1719 27.9997 42.1719C27.2633 42.1719 26.6663 41.575 26.6663 40.8386L26.6666 39.3851C23.6463 38.8332 21.333 36.442 21.333 33.5052C21.333 32.7689 21.93 32.1719 22.6663 32.1719C23.4027 32.1719 23.9997 32.7689 23.9997 33.5052C23.9997 35.3037 25.7539 36.8386 27.9997 36.8386C30.2455 36.8386 31.9997 35.3037 31.9997 33.5052C31.9997 31.7734 30.373 30.286 28.2471 30.1782L27.9997 30.1719C24.3544 30.1719 21.333 27.5282 21.333 24.1719Z" fill="white"/>
<defs>
<linearGradient id="paint0_linear_514_444" x1="5.62318e-07" y1="18.9453" x2="56" y2="49.1853" gradientUnits="userSpaceOnUse">
<stop stop-color="#E5409B"/>
<stop offset="0.491588" stop-color="#FB5843"/>
<stop offset="1" stop-color="#FD7942"/>
</linearGradient>
</defs>
</svg>
