<svg width="32" height="33" viewBox="0 0 32 33" fill="none" xmlns="http://www.w3.org/2000/svg">
<path fill-rule="evenodd" clip-rule="evenodd" d="M0 16.127C0 7.2904 7.16344 0.126953 16 0.126953C24.8366 0.126953 32 7.2904 32 16.127C32 24.9635 24.8366 32.127 16 32.127C7.16344 32.127 0 24.9635 0 16.127Z" fill="#333438"/>
<path d="M16.0002 7.45728C13.8896 7.45736 11.8478 8.20849 10.2402 9.57625C8.63266 10.944 7.56424 12.8392 7.22614 14.9226C6.88803 17.006 7.3023 19.1418 8.39482 20.9477C9.48734 22.7537 11.1868 24.1119 13.1891 24.7795C13.6336 24.8573 13.8003 24.5906 13.8003 24.3573C13.8003 24.1462 13.7891 23.4462 13.7891 22.7017C11.5558 23.1128 10.978 22.1573 10.8002 21.6573C10.603 21.171 10.2903 20.7401 9.88913 20.4017C9.57802 20.2351 9.13357 19.8239 9.87801 19.8128C10.1623 19.8437 10.4349 19.9426 10.6728 20.1012C10.9107 20.2598 11.1069 20.4734 11.2447 20.7239C11.3663 20.9423 11.5297 21.1346 11.7257 21.2897C11.9218 21.4448 12.1464 21.5597 12.3869 21.6279C12.6274 21.696 12.879 21.716 13.1272 21.6867C13.3755 21.6574 13.6155 21.5795 13.8336 21.4573C13.872 21.0054 14.0734 20.5829 14.4002 20.2684C12.4225 20.0462 10.3558 19.2795 10.3558 15.8795C10.3433 14.9961 10.6693 14.1414 11.2669 13.4906C10.9952 12.7228 11.027 11.8802 11.3558 11.1351C11.3558 11.1351 12.1002 10.9017 13.8002 12.0462C15.2547 11.6462 16.7902 11.6462 18.2447 12.0462C19.9447 10.8906 20.6891 11.1351 20.6891 11.1351C21.018 11.8802 21.0498 12.7228 20.778 13.4906C21.3774 14.1403 21.7037 14.9957 21.6891 15.8795C21.6891 19.2906 19.6113 20.0462 17.6336 20.2684C17.8457 20.4834 18.0091 20.7416 18.1126 21.0253C18.2161 21.3091 18.2574 21.6118 18.2336 21.9129C18.2336 23.1018 18.2225 24.0573 18.2225 24.3573C18.2225 24.5906 18.3891 24.8684 18.8336 24.7795C20.8324 24.1065 22.527 22.7451 23.6148 20.9382C24.7027 19.1313 25.113 16.9967 24.7726 14.9153C24.4321 12.8338 23.3631 10.9412 21.7562 9.57506C20.1494 8.20896 18.1093 7.45837 16.0002 7.45728Z" fill="white"/>
</svg>
