<svg width="518" height="519" viewBox="0 0 518 519" fill="none" xmlns="http://www.w3.org/2000/svg">
<circle cx="266" cy="256" r="163.25" stroke="#333438" stroke-width="1.5" stroke-linejoin="round" stroke-dasharray="10 10 10 10 10 10"/>
<circle cx="266" cy="257" r="251.25" stroke="#333438" stroke-width="1.5" stroke-linejoin="round" stroke-dasharray="10 10 10 10 10 10"/>
<rect x="460" y="343" width="56" height="56" rx="28" fill="white"/>
<g clip-path="url(#clip0_514_125)">
<path d="M488 385C495.732 385 502 378.732 502 371C502 363.268 495.732 357 488 357C480.268 357 474 363.268 474 371C474 378.732 480.268 385 488 385Z" fill="#E84142"/>
<path d="M492.938 371.364C493.423 370.526 494.206 370.526 494.691 371.364L497.712 376.666C498.197 377.504 497.8 378.188 496.83 378.188H490.745C489.786 378.188 489.389 377.504 489.863 376.666L492.938 371.364ZM487.096 361.156C487.581 360.318 488.353 360.318 488.838 361.156L489.51 362.369L491.098 365.158C491.483 365.951 491.483 366.888 491.098 367.682L485.773 376.909C485.288 377.658 484.483 378.132 483.59 378.188H479.17C478.2 378.188 477.803 377.515 478.288 376.666L487.096 361.156Z" fill="white"/>
</g>
<g filter="url(#filter0_b_514_125)">
<rect x="379" y="153" width="64" height="64" rx="32" fill="#212129" fill-opacity="0.5"/>
<rect x="379.5" y="153.5" width="63" height="63" rx="31.5" stroke="url(#paint0_linear_514_125)" stroke-opacity="0.4"/>
</g>
<g clip-path="url(#clip1_514_125)">
<path d="M411 199C418.732 199 425 192.732 425 185C425 177.268 418.732 171 411 171C403.268 171 397 177.268 397 185C397 192.732 403.268 199 411 199Z" fill="#13B5EC"/>
<path fill-rule="evenodd" clip-rule="evenodd" d="M412.05 182.288L415.2 180.45V184.125L412.05 182.288ZM415.2 190.163L411 192.613L406.8 190.163V185.875L411 188.325L415.2 185.875V190.163ZM406.8 180.45L409.95 182.288L406.8 184.125V180.45ZM411.525 183.163L414.675 185L411.525 186.838V183.163ZM410.475 186.838L407.325 185L410.475 183.163V186.838ZM414.675 179.575L411 181.675L407.325 179.575L411 177.388L414.675 179.575ZM405.75 179.225V190.688L411 193.663L416.25 190.688V179.225L411 176.25L405.75 179.225Z" fill="white"/>
</g>
<rect x="91" y="298" width="56" height="56" rx="28" fill="white"/>
<path d="M133 326.002C133 333.734 126.731 340.002 118.997 340.003C111.267 340.003 104.999 333.734 105 326.001C104.998 318.269 111.266 312 118.999 312C126.731 312 133 318.27 133 326.002V326.002Z" fill="black"/>
<g clip-path="url(#clip2_514_125)">
<path d="M115.893 324.723L119 321.616L122.109 324.725L123.917 322.917L119 318L114.085 322.915L115.893 324.723L115.893 324.723ZM111 326L112.808 324.192L114.616 326L112.808 327.808L111 326ZM115.893 327.277L119 330.384L122.109 327.275L123.918 329.082L123.917 329.083L119 334L114.085 329.085L114.082 329.082L115.893 327.277L115.893 327.277ZM123.384 326.001L125.192 324.193L127 326.001L125.192 327.809L123.384 326.001Z" fill="#F3BA2F"/>
<path d="M120.834 325.999H120.835L119.001 324.165L117.645 325.52L117.489 325.676L117.168 325.997L117.165 326L117.168 326.003L119.001 327.836L120.835 326.001L120.836 326L120.834 325.999" fill="#F3BA2F"/>
</g>
<g filter="url(#filter1_b_514_125)">
<rect x="343" y="6.10352e-05" width="56" height="56" rx="28" fill="#212129" fill-opacity="0.5"/>
<rect x="343.5" y="0.500061" width="55" height="55" rx="27.5" stroke="url(#paint1_linear_514_125)" stroke-opacity="0.4"/>
</g>
<g clip-path="url(#clip3_514_125)">
<path d="M371.021 22.2687V14.1968L379.553 26.7749L371.021 22.2687ZM371.021 33.928V41.9999L379.553 29.4218L371.021 33.928ZM371.021 28.853V23.7124L379.356 28.1093L371.021 28.853Z" fill="#0C8312"/>
<path d="M371.021 32.6157V28.8532L379.356 28.1094L371.021 32.6157Z" fill="#034C03"/>
<path d="M371.022 22.2687V14.1968L362.513 26.7749L371.022 22.2687ZM371.022 33.928V41.9999L362.513 29.4218L371.022 33.928ZM371.022 28.853V23.7124L362.71 28.1093L371.022 28.853Z" fill="#3CB93C"/>
<path d="M371.021 32.6157V28.8532L362.709 28.1094L371.021 32.6157Z" fill="#166816"/>
</g>
<g clip-path="url(#clip4_514_125)">
<path d="M385 28.0023C385 35.7338 378.731 42.0023 370.997 42.0034C363.267 42.0034 356.999 35.7338 357 28.0012C356.998 20.2686 363.266 14.0001 370.999 14.0001C378.731 14.0001 385 20.2697 385 28.0023V28.0023Z" fill="white"/>
<g clip-path="url(#clip5_514_125)">
<path d="M376.514 24.3143C376.415 24.4221 376.28 24.485 376.136 24.485H363.101C362.863 24.485 362.743 24.1706 362.912 23.9864L365.487 21.1702C365.585 21.0625 365.721 20.9996 365.865 20.9996H378.9C379.138 20.9996 379.257 21.314 379.089 21.4981L376.514 24.3143Z" fill="url(#paint2_linear_514_125)"/>
<path d="M376.514 34.8294C376.411 34.9372 376.276 35.0001 376.136 35.0001H363.101C362.863 35.0001 362.743 34.6857 362.912 34.5015L365.487 31.6853C365.585 31.5775 365.721 31.5147 365.865 31.5147H378.9C379.138 31.5147 379.257 31.8291 379.089 32.0132L376.514 34.8294Z" fill="url(#paint3_linear_514_125)"/>
<path d="M365.487 29.6061C365.585 29.7139 365.721 29.7767 365.865 29.7767H378.9C379.138 29.7767 379.257 29.4623 379.089 29.2782L376.514 26.462C376.415 26.3542 376.28 26.2913 376.136 26.2913H363.101C362.863 26.2913 362.743 26.6057 362.912 26.7899L365.487 29.6061Z" fill="url(#paint4_linear_514_125)"/>
</g>
</g>
<g filter="url(#filter2_b_514_125)">
<rect x="291" y="380" width="56" height="56" rx="28" fill="#212129" fill-opacity="0.5"/>
<rect x="291.5" y="380.5" width="55" height="55" rx="27.5" stroke="url(#paint5_linear_514_125)" stroke-opacity="0.4"/>
</g>
<path d="M318.887 421.918C326.165 421.918 332.064 416.019 332.064 408.742C332.064 401.465 326.165 395.565 318.887 395.565C311.61 395.565 305.711 401.465 305.711 408.742C305.711 416.019 311.61 421.918 318.887 421.918Z" fill="#2E3148"/>
<path d="M318.889 416.387C323.111 416.387 326.534 412.964 326.534 408.741C326.534 404.519 323.111 401.095 318.889 401.095C314.666 401.095 311.243 404.519 311.243 408.741C311.243 412.964 314.666 416.387 318.889 416.387Z" fill="#1B1E36"/>
<path d="M318.914 397.247C317.491 397.247 316.338 402.406 316.338 408.769C316.338 415.133 317.491 420.292 318.914 420.292C320.336 420.292 321.489 415.133 321.489 408.769C321.489 402.406 320.336 397.247 318.914 397.247ZM319.091 419.642C318.929 419.859 318.766 419.696 318.766 419.696C318.111 418.937 317.784 417.527 317.784 417.527C316.638 413.84 316.911 405.923 316.911 405.923C317.449 399.638 318.428 398.153 318.762 397.824C318.796 397.79 318.841 397.77 318.888 397.766C318.936 397.762 318.984 397.775 319.023 397.803C319.506 398.145 319.912 399.579 319.912 399.579C321.11 404.025 321.001 408.2 321.001 408.2C321.11 411.833 320.401 415.9 320.401 415.9C319.856 418.991 319.091 419.642 319.091 419.642Z" fill="#6F7390"/>
<path d="M328.908 403.034C328.199 401.8 323.151 403.367 317.629 406.534C312.106 409.701 308.21 413.269 308.918 414.502C309.626 415.736 314.674 414.17 320.197 411.003C325.72 407.836 329.615 404.268 328.908 403.034V403.034ZM309.571 414.333C309.3 414.299 309.361 414.076 309.361 414.076C309.694 413.13 310.752 412.145 310.752 412.145C313.382 409.316 320.385 405.613 320.385 405.613C326.104 402.952 327.88 403.064 328.331 403.188C328.377 403.201 328.417 403.23 328.444 403.27C328.471 403.31 328.483 403.358 328.478 403.405C328.424 403.996 327.38 405.06 327.38 405.06C324.122 408.313 320.446 410.297 320.446 410.297C317.349 412.2 313.468 413.608 313.468 413.608C310.516 414.672 309.571 414.333 309.571 414.333H309.571Z" fill="#6F7390"/>
<path d="M328.884 414.543C329.597 413.312 325.712 409.728 320.208 406.538C314.705 403.347 309.658 401.761 308.945 402.994C308.232 404.227 312.117 407.809 317.623 410.999C323.13 414.19 328.171 415.776 328.884 414.543ZM309.418 403.469C309.312 403.219 309.535 403.159 309.535 403.159C310.52 402.973 311.904 403.397 311.904 403.397C315.668 404.254 322.382 408.46 322.382 408.46C327.55 412.076 328.343 413.669 328.462 414.122C328.474 414.168 328.469 414.217 328.448 414.26C328.428 414.304 328.392 414.338 328.349 414.358C327.81 414.605 326.366 414.237 326.366 414.237C321.917 413.044 318.359 410.858 318.359 410.858C315.162 409.134 312.001 406.481 312.001 406.481C309.599 404.458 309.418 403.472 309.418 403.472L309.418 403.469Z" fill="#6F7390"/>
<path d="M318.887 410.096C319.636 410.096 320.242 409.489 320.242 408.741C320.242 407.992 319.636 407.385 318.887 407.385C318.138 407.385 317.531 407.992 317.531 408.741C317.531 409.489 318.138 410.096 318.887 410.096Z" fill="#B7B9C8"/>
<path d="M324.445 404.35C324.88 404.35 325.232 403.985 325.232 403.536C325.232 403.087 324.88 402.723 324.445 402.723C324.011 402.723 323.659 403.087 323.659 403.536C323.659 403.985 324.011 404.35 324.445 404.35Z" fill="#B7B9C8"/>
<path d="M311.539 407.114C311.973 407.114 312.326 406.75 312.326 406.301C312.326 405.852 311.973 405.488 311.539 405.488C311.105 405.488 310.753 405.852 310.753 406.301C310.753 406.75 311.105 407.114 311.539 407.114Z" fill="#B7B9C8"/>
<path d="M317.287 417.092C317.722 417.092 318.074 416.727 318.074 416.278C318.074 415.829 317.722 415.465 317.287 415.465C316.853 415.465 316.501 415.829 316.501 416.278C316.501 416.727 316.853 417.092 317.287 417.092Z" fill="#B7B9C8"/>
<g filter="url(#filter3_b_514_125)">
<rect x="149" y="463" width="56" height="56" rx="28" fill="#212129" fill-opacity="0.5"/>
<rect x="149.5" y="463.5" width="55" height="55" rx="27.5" stroke="url(#paint6_linear_514_125)" stroke-opacity="0.4"/>
</g>
<g clip-path="url(#clip6_514_125)">
<path d="M177.021 485.269V477.197L185.553 489.775L177.021 485.269ZM177.021 496.928V505L185.553 492.422L177.021 496.928ZM177.021 491.853V486.712L185.356 491.109L177.021 491.853Z" fill="#0C8312"/>
<path d="M177.021 495.616V491.853L185.356 491.109L177.021 495.616Z" fill="#034C03"/>
<path d="M177.022 485.269V477.197L168.513 489.775L177.022 485.269ZM177.022 496.928V505L168.513 492.422L177.022 496.928ZM177.022 491.853V486.712L168.71 491.109L177.022 491.853Z" fill="#3CB93C"/>
<path d="M177.021 495.616V491.853L168.709 491.109L177.021 495.616Z" fill="#166816"/>
</g>
<g clip-path="url(#clip7_514_125)">
<path d="M191 491.002C191 498.734 184.731 505.002 176.997 505.003C169.267 505.003 162.999 498.734 163 491.001C162.998 483.269 169.266 477 176.999 477C184.731 477 191 483.27 191 491.002V491.002Z" fill="white"/>
<g clip-path="url(#clip8_514_125)">
<path fill-rule="evenodd" clip-rule="evenodd" d="M176.753 481.667C180.605 481.701 183.523 484.272 184.088 487.689C184.727 491.553 182.105 495.236 178.246 495.901C177.725 495.991 177.192 496.026 176.664 496.057C175.592 496.118 174.508 496.843 174.256 498.267C174.184 498.675 174.087 499.079 174 499.485C173.874 500.074 173.374 500.424 172.822 500.313C172.251 500.197 171.92 499.686 172.044 499.086C172.202 498.319 172.371 497.554 172.535 496.788C173.11 494.111 173.685 491.435 174.257 488.758C174.389 488.141 174.752 487.805 175.299 487.815C175.905 487.827 176.37 488.386 176.245 488.979C175.946 490.401 175.634 491.819 175.327 493.239C175.268 493.514 175.213 493.79 175.153 494.064C175.129 494.175 175.148 494.23 175.28 494.215C176.093 494.124 176.908 494.048 177.719 493.945C179.88 493.67 181.689 491.951 182.08 489.815C182.601 486.962 180.759 484.293 177.903 483.764C175.053 483.237 172.249 485.277 171.867 488.15C171.762 488.941 171.833 489.713 172.083 490.469C172.276 491.055 172.01 491.635 171.469 491.807C170.904 491.987 170.357 491.683 170.168 491.085C168.876 487 171.257 482.82 175.44 481.852C175.947 481.735 176.474 481.705 176.753 481.667Z" fill="black"/>
<path fill-rule="evenodd" clip-rule="evenodd" d="M176.067 499.131C176.07 498.461 176.581 497.951 177.252 497.951C177.93 497.95 178.455 498.477 178.446 499.147C178.437 499.815 177.919 500.329 177.254 500.329C176.575 500.33 176.065 499.815 176.067 499.131Z" fill="#E6027A"/>
</g>
</g>
<rect x="149" y="97.0001" width="56" height="56" rx="28" fill="white"/>
<g clip-path="url(#clip9_514_125)">
<path d="M177.021 119.269V111.197L185.553 123.775L177.021 119.269ZM177.021 130.928V139L185.553 126.422L177.021 130.928ZM177.021 125.853V120.712L185.356 125.109L177.021 125.853Z" fill="#0C8312"/>
<path d="M177.021 129.616V125.853L185.356 125.109L177.021 129.616Z" fill="#034C03"/>
<path d="M177.022 119.269V111.197L168.513 123.775L177.022 119.269ZM177.022 130.928V139L168.513 126.422L177.022 130.928ZM177.022 125.853V120.712L168.71 125.109L177.022 125.853Z" fill="#3CB93C"/>
<path d="M177.021 129.616V125.853L168.709 125.109L177.021 129.616Z" fill="#166816"/>
</g>
<g clip-path="url(#clip10_514_125)">
<path d="M191 125.002C191 132.734 184.731 139.002 176.997 139.003C169.267 139.003 162.999 132.734 163 125.001C162.998 117.269 169.266 111 176.999 111C184.731 111 191 117.27 191 125.002V125.002Z" fill="#677DE3"/>
<path d="M176.999 115.668L176.874 116.094V128.436L176.999 128.561L182.728 125.175L176.999 115.668Z" fill="#C2CBF2"/>
<path d="M176.998 115.668L171.269 125.175L176.998 128.561V122.571V115.668Z" fill="white"/>
<path d="M176.999 129.647L176.929 129.733V134.129L176.999 134.335L182.732 126.262L176.999 129.647Z" fill="#C2CBF2"/>
<path d="M176.998 134.335V129.647L171.269 126.262L176.998 134.335Z" fill="white"/>
<path d="M177.001 128.561L182.73 125.175L177.001 122.57V128.561Z" fill="#8596E8"/>
<path d="M171.269 125.175L176.998 128.561V122.57L171.269 125.175Z" fill="#C2CBF2"/>
</g>
<g filter="url(#filter4_b_514_125)">
<rect y="149" width="56" height="56" rx="28" fill="#212129" fill-opacity="0.5"/>
<rect x="0.5" y="149.5" width="55" height="55" rx="27.5" stroke="url(#paint7_linear_514_125)" stroke-opacity="0.4"/>
</g>
<g clip-path="url(#clip11_514_125)">
<path d="M28.0215 171.269V163.197L36.5527 175.775L28.0215 171.269ZM28.0215 182.928V191L36.5527 178.422L28.0215 182.928ZM28.0215 177.853V172.712L36.3559 177.109L28.0215 177.853Z" fill="#0C8312"/>
<path d="M28.0215 181.616V177.853L36.3559 177.109L28.0215 181.616Z" fill="#034C03"/>
<path d="M28.0221 171.269V163.197L19.5127 175.775L28.0221 171.269ZM28.0221 182.928V191L19.5127 178.422L28.0221 182.928ZM28.0221 177.853V172.712L19.7096 177.109L28.0221 177.853Z" fill="#3CB93C"/>
<path d="M28.0215 181.616V177.853L19.709 177.109L28.0215 181.616Z" fill="#166816"/>
</g>
<g clip-path="url(#clip12_514_125)">
<path d="M41.9999 177.002C41.9999 184.734 35.7314 191.002 27.9966 191.003C20.2674 191.003 13.9989 184.734 14 177.001C13.9978 169.269 20.2663 163 27.9988 163C35.7314 163 41.9999 169.27 41.9999 177.002V177.002Z" fill="white"/>
<g clip-path="url(#clip13_514_125)">
<path d="M32.7642 173.806C32.4239 173.611 31.9864 173.611 31.5975 173.806L28.8753 175.415L27.0281 176.439L24.3545 178.048C24.0142 178.243 23.5767 178.243 23.1878 178.048L21.0975 176.78C20.7573 176.585 20.5142 176.195 20.5142 175.757V173.319C20.5142 172.929 20.7087 172.539 21.0975 172.295L23.1878 171.076C23.5281 170.881 23.9656 170.881 24.3545 171.076L26.4448 172.344C26.785 172.539 27.0281 172.929 27.0281 173.367V174.976L28.8753 173.904V172.246C28.8753 171.856 28.6809 171.466 28.292 171.222L24.4031 168.931C24.0628 168.736 23.6253 168.736 23.2364 168.931L19.2503 171.271C18.8614 171.466 18.667 171.856 18.667 172.246V176.829C18.667 177.219 18.8614 177.609 19.2503 177.853L23.1878 180.145C23.5281 180.34 23.9656 180.34 24.3545 180.145L27.0281 178.584L28.8753 177.512L31.5489 175.952C31.8892 175.757 32.3267 175.757 32.7156 175.952L34.8059 177.17C35.1462 177.365 35.3892 177.756 35.3892 178.194V180.632C35.3892 181.022 35.1948 181.412 34.8059 181.656L32.7642 182.875C32.4239 183.07 31.9864 183.07 31.5975 182.875L29.5073 181.656C29.167 181.461 28.9239 181.071 28.9239 180.632V179.072L27.0767 180.145V181.754C27.0767 182.144 27.2712 182.534 27.66 182.777L31.5975 185.069C31.9378 185.264 32.3753 185.264 32.7642 185.069L36.7017 182.777C37.042 182.582 37.285 182.192 37.285 181.754V177.122C37.285 176.732 37.0906 176.342 36.7017 176.098L32.7642 173.806Z" fill="#8247E5"/>
</g>
</g>
<g opacity="0.85" filter="url(#filter5_f_514_125)">
<circle cx="266" cy="257" r="67" fill="url(#paint8_linear_514_125)"/>
</g>
<circle cx="266" cy="257" r="67" fill="url(#paint9_linear_514_125)"/>
<mask id="mask0_514_125" style="mask-type:alpha" maskUnits="userSpaceOnUse" x="199" y="190" width="134" height="134">
<circle cx="266" cy="257" r="67" fill="url(#paint10_linear_514_125)"/>
</mask>
<g mask="url(#mask0_514_125)">
<g opacity="0.7" filter="url(#filter6_f_514_125)">
<circle cx="242" cy="244" r="31" fill="white"/>
</g>
</g>
<path d="M237.162 261.064V249.224H233.258L230.938 257.016H230.906L228.554 249.224H224.666V261.064H227.45L227.354 252.088L229.914 261.064H231.914L234.442 252.168L234.474 252.2L234.378 261.064H237.162Z" fill="white"/>
<path d="M247.419 261.064V252.184H244.763V257.112C244.763 258.2 244.251 258.872 243.243 258.872C242.235 258.872 241.819 258.328 241.819 257.16V252.184H239.163V257.704C239.163 260.232 240.715 261.352 242.587 261.352C243.787 261.352 244.491 260.936 244.875 260.12H244.907V261.064H247.419Z" fill="white"/>
<path d="M252.069 261.064V249.224H249.413V261.064H252.069Z" fill="white"/>
<path d="M257.176 261.064V254.2H258.456V252.184H257.176V249.224H254.52V252.184H253.208V254.2H254.52V261.064H257.176Z" fill="white"/>
<path d="M262.257 251.24V249.224H259.601V251.24H262.257ZM262.257 261.064V252.184H259.601V261.064H262.257Z" fill="white"/>
<path d="M271.923 252.68C271.907 251.096 271.299 250.152 270.035 249.496C269.411 249.176 268.723 249 267.939 249C265.763 249 263.811 250.472 263.811 252.488C263.811 254.024 264.691 255.048 266.627 255.832C267.699 256.264 269.011 256.68 269.011 257.624C269.011 258.264 268.499 258.76 267.875 258.76C267.123 258.76 266.643 258.12 266.627 257.144H263.619V257.4C263.619 259.944 265.315 261.288 267.891 261.288C270.451 261.288 272.019 259.944 272.019 257.656C272.019 256.104 271.363 255.16 268.755 254.04C267.459 253.48 266.819 253.16 266.819 252.456C266.819 251.928 267.299 251.528 267.859 251.528C268.451 251.528 268.803 251.832 268.931 252.68H271.923Z" fill="white"/>
<path d="M283.143 261.064L285.879 252.184H283.143L281.815 257.704H281.783L280.311 252.184H278.071L276.615 257.704H276.583L275.255 252.184H272.503L275.223 261.064H277.687L279.175 255.32H279.207L280.695 261.064H283.143Z" fill="white"/>
<path d="M295.96 261.064V252.184H293.304V253.128H293.272C292.76 252.312 291.752 251.88 290.664 251.88C288.12 251.88 286.216 253.992 286.216 256.616C286.216 259.304 288.04 261.368 290.664 261.368C291.832 261.368 292.888 260.888 293.272 260.104H293.304V261.064H295.96ZM291.08 258.888C289.848 258.888 288.872 257.88 288.872 256.648C288.872 255.368 289.832 254.36 291.048 254.36C292.296 254.36 293.304 255.368 293.304 256.616C293.304 257.896 292.328 258.888 291.08 258.888Z" fill="white"/>
<path d="M300.866 264.024V260.264C301.586 261.048 302.498 261.368 303.538 261.368C306.082 261.368 307.858 259.24 307.858 256.712C307.858 253.944 306.066 251.88 303.538 251.88C302.434 251.88 301.458 252.28 300.754 253.16H300.706V252.184H298.21V264.024H300.866ZM302.978 258.888C301.714 258.888 300.754 257.88 300.754 256.632C300.754 255.352 301.746 254.36 302.962 254.36C304.242 254.36 305.202 255.384 305.202 256.632C305.202 257.864 304.242 258.888 302.978 258.888Z" fill="white"/>
<defs>
<filter id="filter0_b_514_125" x="329" y="103" width="164" height="164" filterUnits="userSpaceOnUse" color-interpolation-filters="sRGB">
<feFlood flood-opacity="0" result="BackgroundImageFix"/>
<feGaussianBlur in="BackgroundImage" stdDeviation="25"/>
<feComposite in2="SourceAlpha" operator="in" result="effect1_backgroundBlur_514_125"/>
<feBlend mode="normal" in="SourceGraphic" in2="effect1_backgroundBlur_514_125" result="shape"/>
</filter>
<filter id="filter1_b_514_125" x="293" y="-49.9999" width="156" height="156" filterUnits="userSpaceOnUse" color-interpolation-filters="sRGB">
<feFlood flood-opacity="0" result="BackgroundImageFix"/>
<feGaussianBlur in="BackgroundImage" stdDeviation="25"/>
<feComposite in2="SourceAlpha" operator="in" result="effect1_backgroundBlur_514_125"/>
<feBlend mode="normal" in="SourceGraphic" in2="effect1_backgroundBlur_514_125" result="shape"/>
</filter>
<filter id="filter2_b_514_125" x="241" y="330" width="156" height="156" filterUnits="userSpaceOnUse" color-interpolation-filters="sRGB">
<feFlood flood-opacity="0" result="BackgroundImageFix"/>
<feGaussianBlur in="BackgroundImage" stdDeviation="25"/>
<feComposite in2="SourceAlpha" operator="in" result="effect1_backgroundBlur_514_125"/>
<feBlend mode="normal" in="SourceGraphic" in2="effect1_backgroundBlur_514_125" result="shape"/>
</filter>
<filter id="filter3_b_514_125" x="99" y="413" width="156" height="156" filterUnits="userSpaceOnUse" color-interpolation-filters="sRGB">
<feFlood flood-opacity="0" result="BackgroundImageFix"/>
<feGaussianBlur in="BackgroundImage" stdDeviation="25"/>
<feComposite in2="SourceAlpha" operator="in" result="effect1_backgroundBlur_514_125"/>
<feBlend mode="normal" in="SourceGraphic" in2="effect1_backgroundBlur_514_125" result="shape"/>
</filter>
<filter id="filter4_b_514_125" x="-50" y="99.0001" width="156" height="156" filterUnits="userSpaceOnUse" color-interpolation-filters="sRGB">
<feFlood flood-opacity="0" result="BackgroundImageFix"/>
<feGaussianBlur in="BackgroundImage" stdDeviation="25"/>
<feComposite in2="SourceAlpha" operator="in" result="effect1_backgroundBlur_514_125"/>
<feBlend mode="normal" in="SourceGraphic" in2="effect1_backgroundBlur_514_125" result="shape"/>
</filter>
<filter id="filter5_f_514_125" x="99" y="90.0001" width="334" height="334" filterUnits="userSpaceOnUse" color-interpolation-filters="sRGB">
<feFlood flood-opacity="0" result="BackgroundImageFix"/>
<feBlend mode="normal" in="SourceGraphic" in2="BackgroundImageFix" result="shape"/>
<feGaussianBlur stdDeviation="50" result="effect1_foregroundBlur_514_125"/>
</filter>
<filter id="filter6_f_514_125" x="161" y="163" width="162" height="162" filterUnits="userSpaceOnUse" color-interpolation-filters="sRGB">
<feFlood flood-opacity="0" result="BackgroundImageFix"/>
<feBlend mode="normal" in="SourceGraphic" in2="BackgroundImageFix" result="shape"/>
<feGaussianBlur stdDeviation="25" result="effect1_foregroundBlur_514_125"/>
</filter>
<linearGradient id="paint0_linear_514_125" x1="382.733" y1="153" x2="444.652" y2="204.587" gradientUnits="userSpaceOnUse">
<stop stop-color="white" stop-opacity="0.3"/>
<stop offset="1" stop-color="white" stop-opacity="0"/>
</linearGradient>
<linearGradient id="paint1_linear_514_125" x1="346.267" y1="6.18397e-05" x2="400.445" y2="45.139" gradientUnits="userSpaceOnUse">
<stop stop-color="white" stop-opacity="0.3"/>
<stop offset="1" stop-color="white" stop-opacity="0"/>
</linearGradient>
<linearGradient id="paint2_linear_514_125" x1="364.346" y1="36.6819" x2="374.701" y2="18.5455" gradientUnits="userSpaceOnUse">
<stop stop-color="#00FFA3"/>
<stop offset="1" stop-color="#DC1FFF"/>
</linearGradient>
<linearGradient id="paint3_linear_514_125" x1="368.291" y1="38.9347" x2="378.646" y2="20.7983" gradientUnits="userSpaceOnUse">
<stop stop-color="#00FFA3"/>
<stop offset="1" stop-color="#DC1FFF"/>
</linearGradient>
<linearGradient id="paint4_linear_514_125" x1="366.331" y1="37.816" x2="376.686" y2="19.6796" gradientUnits="userSpaceOnUse">
<stop stop-color="#00FFA3"/>
<stop offset="1" stop-color="#DC1FFF"/>
</linearGradient>
<linearGradient id="paint5_linear_514_125" x1="294.267" y1="380" x2="348.445" y2="425.139" gradientUnits="userSpaceOnUse">
<stop stop-color="white" stop-opacity="0.3"/>
<stop offset="1" stop-color="white" stop-opacity="0"/>
</linearGradient>
<linearGradient id="paint6_linear_514_125" x1="152.267" y1="463" x2="206.445" y2="508.139" gradientUnits="userSpaceOnUse">
<stop stop-color="white" stop-opacity="0.3"/>
<stop offset="1" stop-color="white" stop-opacity="0"/>
</linearGradient>
<linearGradient id="paint7_linear_514_125" x1="3.26667" y1="149" x2="57.4454" y2="194.139" gradientUnits="userSpaceOnUse">
<stop stop-color="white" stop-opacity="0.3"/>
<stop offset="1" stop-color="white" stop-opacity="0"/>
</linearGradient>
<linearGradient id="paint8_linear_514_125" x1="157.5" y1="207" x2="346.5" y2="289.5" gradientUnits="userSpaceOnUse">
<stop stop-color="#15B0F3"/>
<stop offset="0.121541" stop-color="#318DE9"/>
<stop offset="0.237516" stop-color="#4079E3"/>
<stop offset="0.398701" stop-color="#654AD5"/>
<stop offset="0.515986" stop-color="#9045C2"/>
<stop offset="0.683068" stop-color="#E5409B"/>
<stop offset="0.857357" stop-color="#FB5843"/>
<stop offset="1" stop-color="#FD7942"/>
</linearGradient>
<linearGradient id="paint9_linear_514_125" x1="157.5" y1="207" x2="346.5" y2="289.5" gradientUnits="userSpaceOnUse">
<stop stop-color="#15B0F3"/>
<stop offset="0.121541" stop-color="#318DE9"/>
<stop offset="0.237516" stop-color="#4079E3"/>
<stop offset="0.398701" stop-color="#654AD5"/>
<stop offset="0.515986" stop-color="#9045C2"/>
<stop offset="0.683068" stop-color="#E5409B"/>
<stop offset="0.857357" stop-color="#FB5843"/>
<stop offset="1" stop-color="#FD7942"/>
</linearGradient>
<linearGradient id="paint10_linear_514_125" x1="157.5" y1="207" x2="346.5" y2="289.5" gradientUnits="userSpaceOnUse">
<stop stop-color="#15B0F3"/>
<stop offset="0.121541" stop-color="#318DE9"/>
<stop offset="0.237516" stop-color="#4079E3"/>
<stop offset="0.398701" stop-color="#654AD5"/>
<stop offset="0.515986" stop-color="#9045C2"/>
<stop offset="0.683068" stop-color="#E5409B"/>
<stop offset="0.857357" stop-color="#FB5843"/>
<stop offset="1" stop-color="#FD7942"/>
</linearGradient>
<clipPath id="clip0_514_125">
<rect width="28" height="28" fill="white" transform="translate(474 357)"/>
</clipPath>
<clipPath id="clip1_514_125">
<rect width="28" height="28" fill="white" transform="translate(397 171)"/>
</clipPath>
<clipPath id="clip2_514_125">
<rect width="16" height="16" fill="white" transform="translate(111 318)"/>
</clipPath>
<clipPath id="clip3_514_125">
<rect width="28" height="28" fill="white" transform="translate(357 14.0001)"/>
</clipPath>
<clipPath id="clip4_514_125">
<rect width="28" height="28.0045" fill="white" transform="translate(357 14.0001)"/>
</clipPath>
<clipPath id="clip5_514_125">
<rect width="16.3333" height="14" fill="white" transform="translate(379.167 35.0001) rotate(-180)"/>
</clipPath>
<clipPath id="clip6_514_125">
<rect width="28" height="28" fill="white" transform="translate(163 477)"/>
</clipPath>
<clipPath id="clip7_514_125">
<rect width="28" height="28.0045" fill="white" transform="translate(163 477)"/>
</clipPath>
<clipPath id="clip8_514_125">
<rect width="18.6667" height="18.6667" fill="white" transform="translate(167.667 481.667)"/>
</clipPath>
<clipPath id="clip9_514_125">
<rect width="28" height="28" fill="white" transform="translate(163 111)"/>
</clipPath>
<clipPath id="clip10_514_125">
<rect width="28" height="28.0045" fill="white" transform="translate(163 111)"/>
</clipPath>
<clipPath id="clip11_514_125">
<rect width="28" height="28" fill="white" transform="translate(14 163)"/>
</clipPath>
<clipPath id="clip12_514_125">
<rect width="28" height="28.0045" fill="white" transform="translate(14 163)"/>
</clipPath>
<clipPath id="clip13_514_125">
<rect width="18.6667" height="16.3333" fill="white" transform="translate(18.667 168.833)"/>
</clipPath>
</defs>
</svg>
