<svg width="32" height="33" viewBox="0 0 32 33" fill="none" xmlns="http://www.w3.org/2000/svg">
<path fill-rule="evenodd" clip-rule="evenodd" d="M0 16.127C0 7.2904 7.16344 0.126953 16 0.126953C24.8366 0.126953 32 7.2904 32 16.127C32 24.9635 24.8366 32.127 16 32.127C7.16344 32.127 0 24.9635 0 16.127Z" fill="#333438"/>
<path fill-rule="evenodd" clip-rule="evenodd" d="M16.0029 7.59399C13.6853 7.59399 13.3945 7.60413 12.4843 7.64555C11.5758 7.68715 10.9557 7.83097 10.4131 8.042C9.85189 8.25996 9.37579 8.55152 8.90148 9.02601C8.4268 9.50032 8.13525 9.97642 7.91658 10.5375C7.70502 11.0803 7.56102 11.7005 7.52013 12.6086C7.47942 13.5189 7.46875 13.8099 7.46875 16.1274C7.46875 18.4449 7.47906 18.7349 7.52031 19.6451C7.56208 20.5536 7.70591 21.1737 7.91675 21.7163C8.13489 22.2775 8.42645 22.7536 8.90094 23.2279C9.37508 23.7026 9.85117 23.9949 10.4121 24.2128C10.955 24.4239 11.5753 24.5677 12.4836 24.6093C13.3938 24.6507 13.6845 24.6608 16.0018 24.6608C18.3195 24.6608 18.6095 24.6507 19.5197 24.6093C20.4282 24.5677 21.049 24.4239 21.5919 24.2128C22.153 23.9949 22.6284 23.7026 23.1025 23.2279C23.5772 22.7536 23.8687 22.2775 24.0874 21.7164C24.2972 21.1737 24.4412 20.5534 24.4839 19.6453C24.5247 18.7351 24.5354 18.4449 24.5354 16.1274C24.5354 13.8099 24.5247 13.519 24.4839 12.6088C24.4412 11.7003 24.2972 11.0803 24.0874 10.5377C23.8687 9.97642 23.5772 9.50032 23.1025 9.02601C22.6278 8.55134 22.1532 8.25978 21.5914 8.042C21.0474 7.83097 20.4269 7.68715 19.5185 7.64555C18.6082 7.60413 18.3185 7.59399 16.0002 7.59399H16.0029ZM15.2373 9.13176C15.4645 9.13141 15.718 9.13176 16.0028 9.13176C18.2813 9.13176 18.5513 9.13994 19.4511 9.18083C20.2831 9.21888 20.7346 9.3579 21.0354 9.4747C21.4337 9.62937 21.7176 9.81426 22.0161 10.1129C22.3147 10.4116 22.4996 10.696 22.6546 11.0943C22.7714 11.3947 22.9106 11.8463 22.9485 12.6783C22.9894 13.5779 22.9983 13.8481 22.9983 16.1254C22.9983 18.4028 22.9894 18.673 22.9485 19.5726C22.9105 20.4046 22.7714 20.8562 22.6546 21.1566C22.5 21.5548 22.3147 21.8384 22.0161 22.1369C21.7174 22.4355 21.4338 22.6204 21.0354 22.7751C20.735 22.8924 20.2831 23.0311 19.4511 23.0692C18.5515 23.11 18.2813 23.1189 16.0028 23.1189C13.7242 23.1189 13.4542 23.11 12.5546 23.0692C11.7226 23.0308 11.2711 22.8917 10.9701 22.7749C10.5719 22.6203 10.2874 22.4354 9.98874 22.1367C9.69007 21.838 9.50518 21.5543 9.35016 21.1559C9.23335 20.8554 9.09415 20.4039 9.05629 19.5719C9.0154 18.6723 9.00722 18.4021 9.00722 16.1233C9.00722 13.8445 9.0154 13.5757 9.05629 12.6762C9.09433 11.8441 9.23335 11.3926 9.35016 11.0918C9.50482 10.6936 9.69007 10.4091 9.98874 10.1104C10.2874 9.81177 10.5719 9.62688 10.9701 9.47186C11.2709 9.35452 11.7226 9.21585 12.5546 9.17763C13.3418 9.14207 13.6469 9.13141 15.2373 9.12963V9.13176ZM20.5579 10.5487C19.9926 10.5487 19.5339 11.0068 19.5339 11.5723C19.5339 12.1377 19.9926 12.5963 20.5579 12.5963C21.1233 12.5963 21.5819 12.1377 21.5819 11.5723C21.5819 11.007 21.1233 10.5487 20.5579 10.5487ZM16.0029 11.7451C13.5828 11.7451 11.6206 13.7073 11.6206 16.1274C11.6206 18.5475 13.5828 20.5088 16.0029 20.5088C18.423 20.5088 20.3845 18.5475 20.3845 16.1274C20.3845 13.7073 18.423 11.7451 16.0029 11.7451ZM16.0029 13.2829C17.5737 13.2829 18.8473 14.5564 18.8473 16.1274C18.8473 17.6983 17.5737 18.9719 16.0029 18.9719C14.4318 18.9719 13.1584 17.6983 13.1584 16.1274C13.1584 14.5564 14.4318 13.2829 16.0029 13.2829Z" fill="white"/>
</svg>
