<svg width="110" height="20" viewBox="0 0 110 20" fill="none" xmlns="http://www.w3.org/2000/svg">
<path d="M16.5227 16.0596V0.29819H11.3607L8.29308 10.6709H8.25077L5.14086 0.29819H0V16.0596H3.68111L3.55418 4.11076L6.93911 16.0596H9.58359L12.9262 4.21725L12.9685 4.25985L12.8416 16.0596H16.5227Z" fill="white"/>
<path d="M16.5227 16.0596V0.29819H11.3607L8.29308 10.6709H8.25077L5.14086 0.29819H0V16.0596H3.68111L3.55418 4.11076L6.93911 16.0596H9.58359L12.9262 4.21725L12.9685 4.25985L12.8416 16.0596H16.5227Z" fill="white"/>
<path d="M30.0844 16.0596V4.23855H26.5725V10.7987C26.5725 12.2471 25.8955 13.1416 24.5627 13.1416C23.2299 13.1416 22.6799 12.4175 22.6799 10.8626V4.23855H19.168V11.5868C19.168 14.9521 21.2201 16.443 23.6953 16.443C25.282 16.443 26.2129 15.8892 26.7206 14.803H26.7629V16.0596H30.0844Z" fill="white"/>
<path d="M30.0844 16.0596V4.23855H26.5725V10.7987C26.5725 12.2471 25.8955 13.1416 24.5627 13.1416C23.2299 13.1416 22.6799 12.4175 22.6799 10.8626V4.23855H19.168V11.5868C19.168 14.9521 21.2201 16.443 23.6953 16.443C25.282 16.443 26.2129 15.8892 26.7206 14.803H26.7629V16.0596H30.0844Z" fill="white"/>
<path d="M36.2338 16.0596V0.29819H32.7219V16.0596H36.2338Z" fill="white"/>
<path d="M36.2338 16.0596V0.29819H32.7219V16.0596H36.2338Z" fill="white"/>
<path d="M42.9853 16.0596V6.92226H44.6778V4.23855H42.9853V0.29819H39.4734V4.23855H37.7387V6.92226H39.4734V16.0596H42.9853Z" fill="white"/>
<path d="M42.9853 16.0596V6.92226H44.6778V4.23855H42.9853V0.29819H39.4734V4.23855H37.7387V6.92226H39.4734V16.0596H42.9853Z" fill="white"/>
<path d="M49.7041 2.9819V0.29819H46.1922V2.9819H49.7041ZM49.7041 16.0596V4.23855H46.1922V16.0596H49.7041Z" fill="white"/>
<path d="M49.7041 2.9819V0.29819H46.1922V2.9819H49.7041ZM49.7041 16.0596V4.23855H46.1922V16.0596H49.7041Z" fill="white"/>
<path d="M62.485 4.89883C62.4639 2.7902 61.66 1.53355 59.9886 0.660276C59.1636 0.234291 58.2539 0 57.2172 0C54.34 0 51.759 1.95953 51.759 4.64324C51.759 6.68797 52.9226 8.05112 55.4825 9.09478C56.8999 9.66986 58.6347 10.2236 58.6347 11.4803C58.6347 12.3323 57.9577 12.9925 57.1326 12.9925C56.1383 12.9925 55.5036 12.1406 55.4825 10.8413H51.5052V11.1821C51.5052 14.5687 53.7477 16.3578 57.1538 16.3578C60.5387 16.3578 62.612 14.5687 62.612 11.5229C62.612 9.45687 61.7446 8.20021 58.2962 6.70927C56.5826 5.96379 55.7363 5.53781 55.7363 4.60064C55.7363 3.89776 56.371 3.36528 57.1115 3.36528C57.8942 3.36528 58.3596 3.76997 58.5289 4.89883H62.485Z" fill="white"/>
<path d="M62.485 4.89883C62.4639 2.7902 61.66 1.53355 59.9886 0.660276C59.1636 0.234291 58.2539 0 57.2172 0C54.34 0 51.759 1.95953 51.759 4.64324C51.759 6.68797 52.9226 8.05112 55.4825 9.09478C56.8999 9.66986 58.6347 10.2236 58.6347 11.4803C58.6347 12.3323 57.9577 12.9925 57.1326 12.9925C56.1383 12.9925 55.5036 12.1406 55.4825 10.8413H51.5052V11.1821C51.5052 14.5687 53.7477 16.3578 57.1538 16.3578C60.5387 16.3578 62.612 14.5687 62.612 11.5229C62.612 9.45687 61.7446 8.20021 58.2962 6.70927C56.5826 5.96379 55.7363 5.53781 55.7363 4.60064C55.7363 3.89776 56.371 3.36528 57.1115 3.36528C57.8942 3.36528 58.3596 3.76997 58.5289 4.89883H62.485Z" fill="white"/>
<path d="M77.3204 16.0596L80.938 4.23855H77.3204L75.5645 11.5868H75.5221L73.5758 4.23855H70.614L68.6888 11.5868H68.6465L66.8906 4.23855H63.2518L66.8483 16.0596H70.1062L72.0737 8.41321H72.1161L74.0835 16.0596H77.3204Z" fill="white"/>
<path d="M77.3204 16.0596L80.938 4.23855H77.3204L75.5645 11.5868H75.5221L73.5758 4.23855H70.614L68.6888 11.5868H68.6465L66.8906 4.23855H63.2518L66.8483 16.0596H70.1062L72.0737 8.41321H72.1161L74.0835 16.0596H77.3204Z" fill="white"/>
<path d="M94.2678 16.0596V4.23855H90.756V5.49521H90.7137C90.0367 4.40895 88.7039 3.83387 87.2653 3.83387C83.9015 3.83387 81.3839 6.64537 81.3839 10.1384C81.3839 13.7167 83.7957 16.4643 87.2653 16.4643C88.8096 16.4643 90.2059 15.8253 90.7137 14.7817H90.756V16.0596H94.2678ZM87.8153 13.1629C86.1863 13.1629 84.8958 11.8211 84.8958 10.181C84.8958 8.4771 86.1652 7.13525 87.773 7.13525C89.4232 7.13525 90.756 8.4771 90.756 10.1384C90.756 11.8424 89.4655 13.1629 87.8153 13.1629Z" fill="white"/>
<path d="M94.2678 16.0596V4.23855H90.756V5.49521H90.7137C90.0367 4.40895 88.7039 3.83387 87.2653 3.83387C83.9015 3.83387 81.3839 6.64537 81.3839 10.1384C81.3839 13.7167 83.7957 16.4643 87.2653 16.4643C88.8096 16.4643 90.2059 15.8253 90.7137 14.7817H90.756V16.0596H94.2678ZM87.8153 13.1629C86.1863 13.1629 84.8958 11.8211 84.8958 10.181C84.8958 8.4771 86.1652 7.13525 87.773 7.13525C89.4232 7.13525 90.756 8.4771 90.756 10.1384C90.756 11.8424 89.4655 13.1629 87.8153 13.1629Z" fill="white"/>
<path d="M100.755 20V14.9947C101.707 16.0383 102.913 16.4643 104.288 16.4643C107.652 16.4643 110 13.6315 110 10.2662C110 6.58147 107.631 3.83387 104.288 3.83387C102.828 3.83387 101.538 4.36635 100.607 5.53781H100.543V4.23855H97.243V20H100.755ZM103.547 13.1629C101.876 13.1629 100.607 11.8211 100.607 10.1597C100.607 8.4558 101.918 7.13525 103.526 7.13525C105.219 7.13525 106.488 8.4984 106.488 10.1597C106.488 11.7998 105.219 13.1629 103.547 13.1629Z" fill="white"/>
<path d="M100.755 20V14.9947C101.707 16.0383 102.913 16.4643 104.288 16.4643C107.652 16.4643 110 13.6315 110 10.2662C110 6.58147 107.631 3.83387 104.288 3.83387C102.828 3.83387 101.538 4.36635 100.607 5.53781H100.543V4.23855H97.243V20H100.755ZM103.547 13.1629C101.876 13.1629 100.607 11.8211 100.607 10.1597C100.607 8.4558 101.918 7.13525 103.526 7.13525C105.219 7.13525 106.488 8.4984 106.488 10.1597C106.488 11.7998 105.219 13.1629 103.547 13.1629Z" fill="white"/>
</svg>
