<svg width="330" height="312" viewBox="0 0 330 312" fill="none" xmlns="http://www.w3.org/2000/svg">
<path d="M1.00204 311.5H0.502045V311V1V0.5H1.00204H103.218H103.591L103.697 0.857319L164.334 204.514H164.428L225.902 0.855515L226.009 0.5H226.38H328.178H328.678V1V311V311.5H328.178H255.286H254.78L254.786 310.995L257.26 79.7021L191.253 311.137L191.15 311.5H190.772H138.407H138.03L137.926 311.137L71.97 79.0365L71.8827 79.1238L74.3939 310.995L74.3994 311.5H73.894H1.00204Z" stroke="url(#paint0_linear_514_109)"/>
<path d="M1.00204 311.5H0.502045V311V1V0.5H1.00204H103.218H103.591L103.697 0.857319L164.334 204.514H164.428L225.902 0.855515L226.009 0.5H226.38H328.178H328.678V1V311V311.5H328.178H255.286H254.78L254.786 310.995L257.26 79.7021L191.253 311.137L191.15 311.5H190.772H138.407H138.03L137.926 311.137L71.97 79.0365L71.8827 79.1238L74.3939 310.995L74.3994 311.5H73.894H1.00204Z" stroke="url(#paint1_linear_514_109)"/>
<defs>
<linearGradient id="paint0_linear_514_109" x1="328.178" y1="69.2" x2="9.81435" y2="259.601" gradientUnits="userSpaceOnUse">
<stop stop-color="#15B0F3"/>
<stop offset="0.437773" stop-color="#318DE9"/>
<stop offset="1" stop-color="#4A71D5"/>
</linearGradient>
<linearGradient id="paint1_linear_514_109" x1="293.684" y1="24.2385" x2="168.655" y2="337.382" gradientUnits="userSpaceOnUse">
<stop stop-color="#070709" stop-opacity="0.2"/>
<stop offset="1" stop-color="#070709"/>
</linearGradient>
</defs>
</svg>
