<svg width="32" height="33" viewBox="0 0 32 33" fill="none" xmlns="http://www.w3.org/2000/svg">
<path fill-rule="evenodd" clip-rule="evenodd" d="M0 16.127C0 7.2904 7.16344 0.126953 16 0.126953C24.8366 0.126953 32 7.2904 32 16.127C32 24.9635 24.8366 32.127 16 32.127C7.16344 32.127 0 24.9635 0 16.127Z" fill="#333438"/>
<path d="M9.89729 12.1802C9.91717 11.974 9.84227 11.7702 9.69561 11.6315L8.20168 9.74239V9.46021H12.8403L16.4258 17.7142L19.578 9.46021H24V9.74239L22.7227 11.0279C22.6126 11.116 22.5579 11.2608 22.5808 11.4042V20.8496C22.5579 20.9929 22.6126 21.1377 22.7227 21.2258L23.9701 22.5114V22.7935H17.6956V22.5114L18.9879 21.1945C19.1148 21.0612 19.1148 21.022 19.1148 20.8182V13.1835L15.5219 22.7622H15.0364L10.8534 13.1835V19.6033C10.8185 19.8732 10.9039 20.1449 11.085 20.3401L12.7656 22.48V22.7622H8V22.48L9.68067 20.3401C9.86039 20.1446 9.94081 19.871 9.89729 19.6033V12.1802Z" fill="white"/>
</svg>
