<svg width="729" height="132" viewBox="0 0 729 132" fill="none" xmlns="http://www.w3.org/2000/svg">
<path d="M110.165 106V2.4H76.0053L55.7053 70.58H55.4253L34.8453 2.4H0.825313V106H25.1853L24.3453 27.46L46.7453 106H64.2453L86.3653 28.16L86.6453 28.44L85.8053 106H110.165ZM199.911 106V28.3H176.671V71.42C176.671 80.94 172.191 86.82 163.371 86.82C154.551 86.82 150.911 82.06 150.911 71.84V28.3H127.671V76.6C127.671 98.72 141.251 108.52 157.631 108.52C168.131 108.52 174.291 104.88 177.651 97.74H177.931V106H199.911ZM240.605 106V2.4H217.365V106H240.605ZM285.283 106V45.94H296.483V28.3H285.283V2.4H262.043V28.3H250.563V45.94H262.043V106H285.283ZM329.745 20.04V2.4H306.505V20.04H329.745ZM329.745 106V28.3H306.505V106H329.745ZM414.324 32.64C414.184 18.78 408.864 10.52 397.804 4.77999C392.344 1.98 386.324 0.439999 379.464 0.439999C360.424 0.439999 343.344 13.32 343.344 30.96C343.344 44.4 351.044 53.36 367.984 60.22C377.364 64 388.844 67.64 388.844 75.9C388.844 81.5 384.364 85.84 378.904 85.84C372.324 85.84 368.124 80.24 367.984 71.7H341.664V73.94C341.664 96.2 356.504 107.96 379.044 107.96C401.444 107.96 415.164 96.2 415.164 76.18C415.164 62.6 409.424 54.34 386.604 44.54C375.264 39.64 369.664 36.84 369.664 30.68C369.664 26.06 373.864 22.56 378.764 22.56C383.944 22.56 387.024 25.22 388.144 32.64H414.324ZM512.498 106L536.438 28.3H512.498L500.878 76.6H500.598L487.718 28.3H468.118L455.378 76.6H455.098L443.478 28.3H419.398L443.198 106H464.758L477.778 55.74H478.058L491.078 106H512.498ZM624.649 106V28.3H601.409V36.56H601.129C596.649 29.42 587.829 25.64 578.309 25.64C556.049 25.64 539.389 44.12 539.389 67.08C539.389 90.6 555.349 108.66 578.309 108.66C588.529 108.66 597.769 104.46 601.129 97.6H601.409V106H624.649ZM581.949 86.96C571.169 86.96 562.629 78.14 562.629 67.36C562.629 56.16 571.029 47.34 581.669 47.34C592.589 47.34 601.409 56.16 601.409 67.08C601.409 78.28 592.869 86.96 581.949 86.96ZM667.578 131.9V99C673.878 105.86 681.858 108.66 690.958 108.66C713.218 108.66 728.758 90.04 728.758 67.92C728.758 43.7 713.077 25.64 690.958 25.64C681.298 25.64 672.758 29.14 666.598 36.84H666.178V28.3H644.338V131.9H667.578ZM686.058 86.96C674.998 86.96 666.598 78.14 666.598 67.22C666.598 56.02 675.278 47.34 685.918 47.34C697.118 47.34 705.518 56.3 705.518 67.22C705.518 78 697.118 86.96 686.058 86.96Z" fill="url(#paint0_linear_514_599)"/>
<defs>
<linearGradient id="paint0_linear_514_599" x1="-20" y1="76.6933" x2="745" y2="76.6933" gradientUnits="userSpaceOnUse">
<stop stop-color="#15B0F3"/>
<stop offset="0.121541" stop-color="#318DE9"/>
<stop offset="0.237516" stop-color="#4079E3"/>
<stop offset="0.398701" stop-color="#654AD5"/>
<stop offset="0.515986" stop-color="#9045C2"/>
<stop offset="0.683068" stop-color="#E5409B"/>
<stop offset="0.857357" stop-color="#FB5843"/>
<stop offset="1" stop-color="#FD7942"/>
</linearGradient>
</defs>
</svg>
