<svg width="64" height="64" viewBox="0 0 64 64" fill="none" xmlns="http://www.w3.org/2000/svg">
<g clip-path="url(#clip0_514_476)">
<path d="M63.9998 32C63.9998 49.6691 49.6718 63.9949 31.9922 63.9974C14.3255 63.9974 -0.00255903 49.6691 1.3722e-06 31.9974C-0.00511943 14.3258 14.3229 0 31.9974 0C49.6718 0 63.9998 14.3283 63.9998 32Z" fill="white"/>
<g clip-path="url(#clip1_514_476)">
<path fill-rule="evenodd" clip-rule="evenodd" d="M31.4348 10.6649C40.2391 10.7427 46.9087 16.6184 48.2001 24.4279C49.6604 33.2574 43.6676 41.6753 34.8472 43.1959C33.6565 43.4012 32.4397 43.4818 31.2309 43.5508C28.7808 43.6904 26.3027 45.349 25.7277 48.6019C25.5627 49.5353 25.3421 50.4589 25.1432 51.3861C24.854 52.733 23.7126 53.5329 22.4494 53.2775C21.1438 53.0136 20.3894 51.8453 20.6717 50.4737C21.0326 48.7205 21.4194 46.9726 21.7949 45.2225C23.1075 39.1053 24.4233 32.9888 25.7299 26.8704C26.0307 25.4619 26.8624 24.6925 28.1118 24.7168C29.4963 24.7437 30.5601 26.021 30.2745 27.3769C29.5902 30.6253 28.8765 33.8674 28.176 37.1123C28.0406 37.74 27.9159 38.3699 27.7785 38.9972C27.7232 39.2498 27.7671 39.3767 28.0685 39.3427C29.9266 39.1331 31.7893 38.9594 33.6441 38.7241C38.582 38.0977 42.7177 34.1676 43.6106 29.2861C44.8031 22.7671 40.5913 16.667 34.0635 15.4588C27.5497 14.253 21.1394 18.9149 20.2677 25.482C20.0278 27.2893 20.1906 29.0526 20.7607 30.7813C21.2019 32.1194 20.5942 33.447 19.3584 33.8397C18.0671 34.25 16.8163 33.556 16.3841 32.1895C13.4313 22.8536 18.8727 13.3 28.4334 11.089C29.592 10.8212 30.7966 10.752 31.4348 10.6649Z" fill="black"/>
<path fill-rule="evenodd" clip-rule="evenodd" d="M29.8682 50.5757C29.8731 49.0443 31.0431 47.8788 32.5759 47.8784C34.1254 47.8781 35.3264 49.0815 35.3048 50.6128C35.2834 52.1393 34.0995 53.3136 32.5812 53.3143C31.0292 53.3151 29.8631 52.1381 29.8682 50.5757Z" fill="#E6027A"/>
</g>
</g>
<defs>
<clipPath id="clip0_514_476">
<rect width="64" height="64" fill="white"/>
</clipPath>
<clipPath id="clip1_514_476">
<rect width="42.6667" height="42.6598" fill="white" transform="translate(10.666 10.6649)"/>
</clipPath>
</defs>
</svg>
