<svg width="64" height="64" viewBox="0 0 64 64" fill="none" xmlns="http://www.w3.org/2000/svg">
<g clip-path="url(#clip0_514_490)">
<path d="M63.9998 32C63.9998 49.6691 49.6718 63.9949 31.9922 63.9974C14.3255 63.9974 -0.00255903 49.6691 1.3722e-06 31.9974C-0.00511943 14.3258 14.3229 0 31.9974 0C49.6718 0 63.9998 14.3283 63.9998 32Z" fill="white"/>
<g clip-path="url(#clip1_514_490)">
<path d="M42.8882 24.6959C42.1105 24.2502 41.1105 24.2502 40.2216 24.6959L33.9993 28.3729L29.7771 30.7129L23.666 34.3899C22.8882 34.8356 21.8882 34.8356 20.9993 34.3899L16.2216 31.4928C15.4438 31.0471 14.8882 30.1557 14.8882 29.1529V23.5817C14.8882 22.6903 15.3327 21.7989 16.2216 21.2417L20.9993 18.4561C21.7771 18.0104 22.7771 18.0104 23.666 18.4561L28.4438 21.3532C29.2216 21.7989 29.7771 22.6903 29.7771 23.6931V27.3701L33.9993 24.9188V21.1303C33.9993 20.2389 33.5549 19.3475 32.666 18.7904L23.7771 13.5534C22.9993 13.1077 21.9993 13.1077 21.1105 13.5534L11.9993 18.9018C11.1105 19.3475 10.666 20.2389 10.666 21.1303V31.6043C10.666 32.4957 11.1105 33.3871 11.9993 33.9442L20.9993 39.1812C21.7771 39.6269 22.7771 39.6269 23.666 39.1812L29.7771 35.6156L33.9993 33.1642L40.1105 29.5986C40.8882 29.1529 41.8882 29.1529 42.7771 29.5986L47.5549 32.3842C48.3327 32.8299 48.8882 33.7213 48.8882 34.7242V40.2954C48.8882 41.1868 48.4438 42.0782 47.5549 42.6353L42.8882 45.4209C42.1105 45.8666 41.1105 45.8666 40.2216 45.4209L35.4438 42.6353C34.666 42.1896 34.1105 41.2982 34.1105 40.2954V36.7298L29.8882 39.1812V42.8582C29.8882 43.7496 30.3327 44.641 31.2216 45.1981L40.2216 50.4351C40.9993 50.8808 41.9993 50.8808 42.8882 50.4351L51.8882 45.1981C52.666 44.7524 53.2216 43.861 53.2216 42.8582V32.2728C53.2216 31.3814 52.7771 30.49 51.8882 29.9329L42.8882 24.6959Z" fill="#8247E5"/>
</g>
</g>
<defs>
<clipPath id="clip0_514_490">
<rect width="64" height="64" fill="white"/>
</clipPath>
<clipPath id="clip1_514_490">
<rect width="42.6667" height="37.3274" fill="white" transform="translate(10.666 13.3312)"/>
</clipPath>
</defs>
</svg>
