<svg width="56" height="57" viewBox="0 0 56 57" fill="none" xmlns="http://www.w3.org/2000/svg">
<rect y="0.838623" width="56" height="56" rx="12" fill="url(#paint0_linear_514_432)"/>
<path fill-rule="evenodd" clip-rule="evenodd" d="M37.3337 15.5052C39.5428 15.5052 41.3337 17.2961 41.3337 19.5052V38.1719C41.3337 40.3811 39.5428 42.1719 37.3337 42.1719H18.667C16.4579 42.1719 14.667 40.3811 14.667 38.1719V19.5052C14.667 17.2961 16.4579 15.5052 18.667 15.5052H37.3337ZM37.3337 18.1719H18.667C17.9306 18.1719 17.3337 18.7688 17.3337 19.5052V38.1719C17.3337 38.9083 17.9306 39.5052 18.667 39.5052H37.3337C38.07 39.5052 38.667 38.9083 38.667 38.1719V19.5052C38.667 18.7688 38.07 18.1719 37.3337 18.1719ZM22.667 31.5052C23.4034 31.5052 24.0003 32.1022 24.0003 32.8386V35.5052C24.0003 36.2416 23.4034 36.8386 22.667 36.8386C21.9306 36.8386 21.3337 36.2416 21.3337 35.5052V32.8386C21.3337 32.1022 21.9306 31.5052 22.667 31.5052ZM28.0003 20.8386C28.7367 20.8386 29.3337 21.4356 29.3337 22.172V35.5053C29.3337 36.2417 28.7367 36.8386 28.0003 36.8386C27.2639 36.8386 26.667 36.2417 26.667 35.5053V22.172C26.667 21.4356 27.2639 20.8386 28.0003 20.8386ZM33.3337 26.1719C34.07 26.1719 34.667 26.7688 34.667 27.5052V35.5052C34.667 36.2416 34.07 36.8385 33.3337 36.8385C32.5973 36.8385 32.0003 36.2416 32.0003 35.5052V27.5052C32.0003 26.7688 32.5973 26.1719 33.3337 26.1719Z" fill="white"/>
<defs>
<linearGradient id="paint0_linear_514_432" x1="28" y1="0.838624" x2="56" y2="56.8386" gradientUnits="userSpaceOnUse">
<stop stop-color="#B950EB"/>
<stop offset="1" stop-color="#E54068"/>
</linearGradient>
</defs>
</svg>
