<svg width="286" height="420" viewBox="0 0 286 420" fill="none" xmlns="http://www.w3.org/2000/svg">
<path d="M281.754 126.682H282.259L282.254 126.177C281.983 99.1734 276.696 77.5809 266.09 59.9319C255.482 42.2814 239.58 28.6178 218.153 17.4292L218.151 17.428C196.983 6.50608 173.644 0.5 147.057 0.5C73.3084 0.5 6.99143 50.7089 6.99143 119.651C6.99143 145.882 14.4636 167.77 30.1669 186.442C45.8592 205.101 69.7432 220.516 102.51 233.867L102.511 233.867C105.987 235.276 109.534 236.679 113.106 238.092C128.194 244.061 143.74 250.21 156.334 257.78C171.912 267.143 182.801 278.579 182.801 294.362C182.801 315.855 165.716 332.505 144.893 332.505C132.341 332.505 122.073 327.138 114.863 317.667C107.642 308.182 103.468 294.553 103.199 278.026L103.191 277.534H102.699H1H0.5V278.034V286.742C0.5 330.128 14.8782 363.34 40.2264 385.698C65.5654 408.049 101.805 419.5 145.434 419.5C188.794 419.5 223.816 408.048 248.004 386.787C272.201 365.519 285.5 334.486 285.5 295.451C285.5 268.972 279.934 247.618 263.269 228.112C246.626 208.634 218.952 191.044 174.845 171.987C152.922 162.456 136.616 154.994 125.785 146.94C114.988 138.91 109.69 130.337 109.69 118.562C109.69 100.936 125.633 87.4948 144.352 87.4948C154.27 87.4948 162.102 90.0536 167.999 96.1197C173.912 102.203 177.945 111.879 180.102 126.256L180.166 126.682H180.596H281.754Z" stroke="url(#paint0_linear_514_521)"/>
<path d="M281.754 126.682H282.259L282.254 126.177C281.983 99.1734 276.696 77.5809 266.09 59.9319C255.482 42.2814 239.58 28.6178 218.153 17.4292L218.151 17.428C196.983 6.50608 173.644 0.5 147.057 0.5C73.3084 0.5 6.99143 50.7089 6.99143 119.651C6.99143 145.882 14.4636 167.77 30.1669 186.442C45.8592 205.101 69.7432 220.516 102.51 233.867L102.511 233.867C105.987 235.276 109.534 236.679 113.106 238.092C128.194 244.061 143.74 250.21 156.334 257.78C171.912 267.143 182.801 278.579 182.801 294.362C182.801 315.855 165.716 332.505 144.893 332.505C132.341 332.505 122.073 327.138 114.863 317.667C107.642 308.182 103.468 294.553 103.199 278.026L103.191 277.534H102.699H1H0.5V278.034V286.742C0.5 330.128 14.8782 363.34 40.2264 385.698C65.5654 408.049 101.805 419.5 145.434 419.5C188.794 419.5 223.816 408.048 248.004 386.787C272.201 365.519 285.5 334.486 285.5 295.451C285.5 268.972 279.934 247.618 263.269 228.112C246.626 208.634 218.952 191.044 174.845 171.987C152.922 162.456 136.616 154.994 125.785 146.94C114.988 138.91 109.69 130.337 109.69 118.562C109.69 100.936 125.633 87.4948 144.352 87.4948C154.27 87.4948 162.102 90.0536 167.999 96.1197C173.912 102.203 177.945 111.879 180.102 126.256L180.166 126.682H180.596H281.754Z" stroke="url(#paint1_linear_514_521)"/>
<defs>
<linearGradient id="paint0_linear_514_521" x1="1" y1="92.96" x2="327.76" y2="218.765" gradientUnits="userSpaceOnUse">
<stop stop-color="#15B0F3"/>
<stop offset="0.437773" stop-color="#318DE9"/>
<stop offset="1" stop-color="#4A71D5"/>
</linearGradient>
<linearGradient id="paint1_linear_514_521" x1="30.9418" y1="32.3344" x2="250.22" y2="385.884" gradientUnits="userSpaceOnUse">
<stop stop-color="#070709" stop-opacity="0.2"/>
<stop offset="1" stop-color="#070709"/>
</linearGradient>
</defs>
</svg>
