<svg width="56" height="57" viewBox="0 0 56 57" fill="none" xmlns="http://www.w3.org/2000/svg">
<rect y="0.838623" width="56" height="56" rx="12" fill="url(#paint0_linear_514_422)"/>
<path fill-rule="evenodd" clip-rule="evenodd" d="M40.0003 39.5052C40.7367 39.5052 41.3337 40.1022 41.3337 40.8386C41.3337 41.575 40.7367 42.1719 40.0003 42.1719H16.0003C15.2639 42.1719 14.667 41.575 14.667 40.8386C14.667 40.1022 15.2639 39.5052 16.0003 39.5052H40.0003ZM20.3908 30.5624L35.0575 15.8958C35.5382 15.4151 36.2945 15.3782 36.8175 15.7849L36.9431 15.8958L40.9431 19.8958C41.4238 20.3764 41.4608 21.1327 41.0541 21.6558L40.9431 21.7814L26.2765 36.4481C26.0681 36.6564 25.7979 36.7887 25.5089 36.827L25.3337 36.8386H21.3337C20.6499 36.8386 20.0863 36.3239 20.0093 35.6607L20.0003 35.5052V31.5052C20.0003 31.2106 20.0979 30.9259 20.2751 30.6945L20.3908 30.5624L35.0575 15.8958L20.3908 30.5624ZM36.0003 18.7241L22.667 32.0575V34.1719H24.7814L38.1147 20.8385L36.0003 18.7241Z" fill="white"/>
<defs>
<linearGradient id="paint0_linear_514_422" x1="8.01086e-08" y1="13.1586" x2="56" y2="44.892" gradientUnits="userSpaceOnUse">
<stop stop-color="#15B0F3"/>
<stop offset="0.437773" stop-color="#318DE9"/>
<stop offset="1" stop-color="#4A71D5"/>
</linearGradient>
</defs>
</svg>
