<svg width="32" height="33" viewBox="0 0 32 33" fill="none" xmlns="http://www.w3.org/2000/svg">
<path fill-rule="evenodd" clip-rule="evenodd" d="M0 16.127C0 7.2904 7.16344 0.126953 16 0.126953C24.8366 0.126953 32 7.2904 32 16.127C32 24.9635 24.8366 32.127 16 32.127C7.16344 32.127 0 24.9635 0 16.127Z" fill="#333438"/>
<path fill-rule="evenodd" clip-rule="evenodd" d="M15.5208 13.1323L15.5544 13.6859L14.9948 13.6181C12.9579 13.3583 11.1784 12.477 9.66756 10.9968L8.92891 10.2624L8.73865 10.8048C8.33575 12.0137 8.59316 13.2905 9.43253 14.1492C9.8802 14.6237 9.77948 14.6915 9.00725 14.409C8.73865 14.3187 8.50363 14.2509 8.48124 14.2848C8.4029 14.3639 8.6715 15.392 8.88414 15.7988C9.17513 16.3637 9.76828 16.9174 10.4174 17.245L10.9658 17.5049L10.3167 17.5162C9.68994 17.5162 9.66756 17.5275 9.73471 17.7648C9.95854 18.4992 10.8427 19.2788 11.8276 19.6177L12.5214 19.855L11.9171 20.2166C11.0218 20.7363 9.96973 21.0301 8.91772 21.0527C8.41409 21.064 8 21.1092 8 21.1431C8 21.2561 9.36538 21.8888 10.16 22.1374C12.5438 22.8718 15.3753 22.5554 17.5017 21.3013C19.0126 20.4087 20.5235 18.6348 21.2286 16.9174C21.6091 16.0022 21.9896 14.33 21.9896 13.5277C21.9896 13.008 22.0232 12.9402 22.6499 12.3188C23.0192 11.9572 23.3662 11.5618 23.4333 11.4488C23.5452 11.2341 23.534 11.2341 22.9633 11.4262C22.012 11.7652 21.8777 11.72 22.3477 11.2115C22.6947 10.85 23.1088 10.1946 23.1088 10.0026C23.1088 9.96866 22.9409 10.0252 22.7506 10.1268C22.5492 10.2398 22.1015 10.4093 21.7658 10.511L21.1614 10.7031L20.613 10.3302C20.3108 10.1268 19.8856 9.90087 19.6617 9.83308C19.0909 9.67489 18.218 9.69749 17.7032 9.87827C16.3042 10.3867 15.4201 11.6974 15.5208 13.1323Z" fill="white"/>
</svg>
